<?xml version="1.0" encoding="utf-8"?>
<!-- Generator: Adobe Illustrator 23.0.2, SVG Export Plug-In . SVG Version: 6.00 Build 0)  -->
<svg version="1.1" id="图层_1" xmlns="http://www.w3.org/2000/svg" xmlns:xlink="http://www.w3.org/1999/xlink" x="0px" y="0px"
	 viewBox="0 0 1920 720" style="enable-background:new 0 0 1920 720;" xml:space="preserve">
<style type="text/css">
	.st0{display:none;fill:url(#SVGID_1_);}
	.st1{display:none;fill:url(#SVGID_2_);}
	.st2{opacity:0.21;fill:none;stroke:#7797A5;stroke-width:3;stroke-miterlimit:10;}
	.st3{fill:url(#SVGID_3_);stroke:#4D4D4D;stroke-width:7;stroke-miterlimit:10;}
	.st4{fill:#4C4C4C;}
	.st5{fill:#FFFFFF;}
	.st6{fill:#73B3FF;}
	.st7{fill:#4D4D4D;}
	.st8{fill:#5D27C4;}
	.st9{font-family:'Consolas';}
	.st10{font-size:46.2px;}
	.st11{fill:#1D9981;}
	.st12{fill:#2686C6;}
	.st13{font-size:20.16px;}
	.st14{display:none;}
	.st15{display:inline;fill:#CFDAE5;}
	.st16{font-size:36px;}
	.st17{fill:#8CAEC4;}
</style>
<radialGradient id="SVGID_1_" cx="960" cy="360" r="435.6083" fx="862.6492" fy="358.7166" gradientTransform="matrix(0.0106 0.9999 -2.9087 0.0309 1996.9241 -611.0827)" gradientUnits="userSpaceOnUse">
	<stop  offset="0" style="stop-color:#E9F5FF"/>
	<stop  offset="0.4518" style="stop-color:#EDF7FF"/>
	<stop  offset="0.8705" style="stop-color:#F8FCFF"/>
	<stop  offset="1" style="stop-color:#FDFEFF"/>
</radialGradient>
<rect class="st0" width="1920" height="720"/>
<radialGradient id="SVGID_2_" cx="960" cy="357" r="618.7192" fx="821.7271" fy="355.1772" gradientTransform="matrix(0.0106 0.9999 -1.6425 0.0175 1536.1509 -609.1821)" gradientUnits="userSpaceOnUse">
	<stop  offset="0" style="stop-color:#E9F5FF"/>
	<stop  offset="0.4518" style="stop-color:#EDF7FF"/>
	<stop  offset="0.8705" style="stop-color:#F8FCFF"/>
	<stop  offset="1" style="stop-color:#FDFEFF"/>
</radialGradient>
<rect y="-3" class="st1" width="1920" height="720"/>
<g>
	<g>
		<path d="M678.39,226.22c13.43-9.36,24.79-19.54,34.06-30.55c9.27-11,16.9-23.14,22.88-36.4l9.75,4.81
			c-7.28,14.82-15.64,27.82-25.09,39c-4.68,5.46-9.9,10.77-15.67,15.92c-5.76,5.16-12.24,10.42-19.44,15.79L678.39,226.22z
			 M680.99,190.73h58.11v9.88h-58.11V190.73z M681.9,240c6.58-0.35,16.64-1.34,30.16-2.99c12.39-1.73,22.14-3.29,29.25-4.68
			l0.78,10.27c-7.54,1.56-17.25,3.17-29.12,4.81c-11.96,1.65-21.84,2.69-29.64,3.12L681.9,240z M686.19,209.71h49.14v9.23
			c-4.94,5.2-10.49,10.05-16.64,14.56v26.26c0,3.03-0.37,5.42-1.1,7.15c-0.74,1.73-1.95,3.03-3.64,3.9
			c-1.69,0.87-4.01,1.43-6.96,1.69c-3.73,0.43-8.15,0.65-13.26,0.65l-2.21-11.83c3.55,0.26,6.93,0.39,10.14,0.39
			c2.08-0.09,3.49-0.22,4.23-0.39c0.74-0.17,1.23-0.65,1.5-1.43c0.26-0.78,0.39-2.21,0.39-4.29v-25.61
			c4.94-3.38,9.4-6.89,13.39-10.53h-34.97V209.71z M686.32,168.37h39.78v9.49h-39.78V168.37z M702.05,153.81h10.66v41.99h-10.66
			V153.81z M727.79,264.57c8.49-5.72,15.71-11.46,21.65-17.23c5.94-5.76,10.6-11.63,13.98-17.62c3.55-5.98,6.41-13,8.58-21.06
			c2.17-8.06,3.86-17.5,5.07-28.34l11.05,0.26c-1.3,12.13-3.27,22.84-5.92,32.11c-2.64,9.27-6.09,17.51-10.33,24.7
			c-3.55,6.24-8.25,12.37-14.1,18.4s-13.06,12.24-21.65,18.66L727.79,264.57z M734.94,208.15c4.5-7.71,8.62-16.64,12.35-26.78
			c4.07-10.75,6.8-19.89,8.19-27.43l11.44,2.34c-2.86,11.18-5.9,21.02-9.1,29.51c-4.25,11.53-8.8,21.1-13.65,28.73L734.94,208.15z
			 M754.31,188.13c1.04,8.84,2.69,16.92,4.94,24.25c2.25,7.32,5.11,13.89,8.58,19.7c3.29,5.55,7.54,11.01,12.74,16.38
			c5.2,5.37,11.22,10.57,18.07,15.6l-7.93,10.01c-7.11-5.55-13.26-11.07-18.46-16.57c-5.2-5.5-9.45-11.2-12.74-17.1
			c-7.37-12.74-12.13-27.47-14.3-44.2L754.31,188.13z M753.4,184.88l3.25-10.53h39.91v10.53H753.4z"/>
		<path d="M810.47,164.73h115.31v10.4H810.47V164.73z M817.36,188.91c1.47-0.09,2.88-0.35,4.23-0.78c1.34-0.43,2.84-1,4.48-1.69
			c5.03-2.77,10.01-5.8,14.95-9.1c4.94-3.38,9.36-6.63,13.26-9.75l13.52,2.34c-4.42,3.73-8.86,7.15-13.33,10.27
			c-4.46,3.12-9.38,6.2-14.75,9.23c10.75,0.17,21.71,0.04,32.89-0.39c10.92-0.26,22.27-0.78,34.06-1.56l1.43,9.62
			c-7.19,0.43-21.28,1.04-42.25,1.82c-20.02,0.61-35.66,0.82-46.93,0.65L817.36,188.91z M825.81,205.55h84.63v52
			c-0.09,3.12-0.52,5.7-1.3,7.74c-0.78,2.04-2.06,3.62-3.83,4.75c-1.78,1.13-4.18,1.86-7.21,2.21c-5.38,0.69-11.44,0.91-18.2,0.65
			l-2.08-10.79c5.55,0.61,10.62,0.74,15.21,0.39c1.82-0.09,3.14-0.33,3.97-0.72c0.82-0.39,1.36-1.06,1.63-2.01
			c0.26-0.95,0.39-2.47,0.39-4.55v-40.3h-61.88v58.11h-11.31V205.55z M830.62,224.4h73.97v9.62h-73.97V224.4z M830.75,243.51h73.97
			v9.62h-73.97V243.51z M871.44,152.77c0.87,2.25,1.8,5.05,2.79,8.38c1,3.34,1.8,6.39,2.4,9.17h-12.35c-0.52-2.51-1.19-5.18-2.01-8
			c-0.82-2.81-1.71-5.26-2.67-7.34L871.44,152.77z M887.3,170.84c5.03,2.77,10.92,6.67,17.68,11.7c7.97,5.98,13.17,10.14,15.6,12.48
			l-7.28,9.1c-3.38-3.29-8.67-7.67-15.86-13.13c-7.98-5.89-13.61-9.79-16.9-11.7L887.3,170.84z"/>
		<path d="M937.87,229.34c22.62-9.01,41.9-19.57,57.85-31.66c15.95-12.09,28.99-25.76,39.13-41.01l9.88,6.76
			c-10.75,15.69-24.48,29.95-41.21,42.77c-8.23,6.33-17.25,12.29-27.04,17.88c-9.79,5.59-20.63,11.03-32.5,16.31L937.87,229.34z
			 M941.25,191.12h113.49v10.27H941.25V191.12z M953.34,168.5h66.17v10.14h-66.17V168.5z M968.42,242.34l4.42-26l12.61,0.39
			l-2.86,15.47h54.08c-0.78,11.18-1.87,19.8-3.25,25.87c-0.87,3.81-1.84,6.61-2.93,8.38c-1.08,1.78-2.71,3.05-4.88,3.83
			c-2.17,0.78-5.55,1.34-10.14,1.69c-7.71,0.69-16.21,0.91-25.48,0.65l-2.34-11.7c9.36,0.35,16.9,0.52,22.62,0.52
			c3.12-0.09,5.35-0.26,6.7-0.52c1.34-0.26,2.27-0.76,2.79-1.5c0.52-0.74,1-2.01,1.43-3.83c0.78-2.95,1.38-6.71,1.82-11.31
			c0-0.35,0.02-0.67,0.06-0.98c0.04-0.3,0.07-0.63,0.07-0.97H968.42z M977.91,211.66h68.77v10.14h-68.77V211.66z M981.42,154.33
			h12.35v41.86h-12.35V154.33z"/>
		<path d="M1067.48,194.63h24.96v51.48c1.65-1.47,3.36-3.19,5.14-5.14c1.78-1.95,3.49-4.01,5.13-6.17l6.24,9.36
			c-3.55,3.99-7.52,8.02-11.9,12.09c-4.38,4.07-8.73,7.71-13.06,10.92l-6.11-8.45c1.47-1.21,2.42-2.34,2.86-3.38
			c0.43-1.04,0.65-2.51,0.65-4.42v-44.85h-13.91V194.63z M1082.43,155.89c2.77,2.86,6.02,6.5,9.75,10.92
			c3.21,3.73,6.2,7.58,8.97,11.57l-9.23,7.67c-1.73-2.77-4.68-6.67-8.84-11.7c-4.42-5.46-7.63-9.19-9.62-11.18L1082.43,155.89z
			 M1102.84,253.13c5.2-0.69,12.65-1.95,22.36-3.77c8.23-1.73,15.21-3.42,20.93-5.07l1.17,11.44l-3.64,0.91
			c-7.02,1.74-13.04,2.99-18.07,3.77c-7.8,1.56-14.78,2.77-20.93,3.64L1102.84,253.13z M1103.1,178.12h80.08v11.31h-80.08V178.12z
			 M1103.49,206.46h39.65v11.18h-39.65V206.46z M1118.31,212.57h11.05v42.64h-11.05V212.57z M1155.36,153.68
			c0,7.46,0.26,17.12,0.78,28.99c0.69,20.11,1.86,35.67,3.51,46.67c1.3,10.05,3.29,18.07,5.98,24.05c0.95,1.91,1.78,3.23,2.47,3.96
			c0.69,0.74,1.43,1.11,2.21,1.11c0.69,0,1.3-0.54,1.82-1.63c0.52-1.08,1.08-2.92,1.69-5.53c0.43-1.82,0.87-3.79,1.3-5.92
			c0.43-2.12,0.82-4.09,1.17-5.92l9.75,4.55c-1.21,5.98-2.82,11.87-4.81,17.68c-1.04,2.86-2.14,5.11-3.31,6.76
			c-1.17,1.65-2.41,2.82-3.71,3.51c-1.3,0.69-2.69,1.04-4.16,1.04c-2.6,0-5.07-0.97-7.41-2.92s-4.51-5.09-6.5-9.42
			c-3.12-6.33-5.51-15.51-7.15-27.56c-1.65-11.7-2.99-28.34-4.03-49.92c-0.44-9.45-0.7-19.28-0.78-29.51H1155.36z M1165.5,155.76
			c3.12,2.43,5.89,4.98,8.32,7.67c0.95,0.87,2.38,2.38,4.29,4.55c0.35,0.44,0.71,0.87,1.11,1.3c0.39,0.43,0.76,0.87,1.11,1.3
			l-7.28,6.89c-2.95-3.38-5.33-6.02-7.15-7.93c-2.52-2.69-4.94-5.16-7.28-7.41L1165.5,155.76z"/>
		<path d="M1204.5,163.56h41.21v97.89h-41.21V163.56z M1209.7,205.42h29.77v11.05h-29.77V205.42z M1215.54,175.39v74.62h18.98
			v-74.62H1215.54z M1249.21,179.42h65.52v11.83h-65.52V179.42z M1261.96,198.01c3.03,4.16,6.24,9.54,9.62,16.12
			c3.81,6.42,6.67,12.09,8.58,17.03l-10.27,5.59c-1.91-4.77-4.68-10.53-8.32-17.29c-3.81-7.19-6.93-12.48-9.36-15.86L1261.96,198.01
			z M1300.04,256.25c0,3.55-0.41,6.41-1.23,8.58c-0.83,2.17-2.21,3.79-4.16,4.88c-1.95,1.08-4.62,1.8-8,2.14
			c-5.46,0.52-11.88,0.74-19.24,0.65l-2.6-13c3.64,0.26,8.84,0.39,15.6,0.39c2.43-0.09,4.1-0.3,5-0.65
			c0.91-0.35,1.52-0.98,1.82-1.89c0.3-0.91,0.46-2.53,0.46-4.88v-97.89h12.35V256.25z"/>
		<path d="M1324.09,188.78c3.73-4.77,7.28-10.49,10.66-17.16c3.38-6.67,5.94-12.78,7.67-18.33l10.4,2.99
			c-2,6.33-4.68,12.96-8.06,19.89c-3.38,6.93-7.41,13.35-12.09,19.24L1324.09,188.78z M1328.13,219.2h41.86v11.18h-41.86V219.2z
			 M1334.5,193.85h32.5v10.53h-32.5V193.85z M1338.92,263.53c1.56-1.04,2.62-2.02,3.18-2.93c0.56-0.91,0.89-2.14,0.98-3.71v-57.85
			h11.31v56.81c2.25-1.21,5.03-2.86,8.32-4.94c3.29-2.08,5.98-3.94,8.06-5.59l3.51,10.92c-3.29,2.25-7.13,4.59-11.5,7.02
			c-4.38,2.43-9.17,4.9-14.37,7.41c-0.78,0.35-1.58,0.71-2.4,1.11c-0.83,0.39-1.63,0.76-2.41,1.1L1338.92,263.53z M1341.13,170.19
			h30.16v10.79h-30.16V170.19z M1373.88,177.34h64.61v57.59h-64.61V177.34z M1384.8,188v35.88h42.77V188H1384.8z M1400.79,154.07
			h10.79v118.69h-10.79V154.07z"/>
	</g>
</g>
<line class="st2" x1="309" y1="454.5" x2="1611.5" y2="454.5"/>
<g>
	<radialGradient id="SVGID_3_" cx="550.5" cy="210.5" r="75.5" gradientUnits="userSpaceOnUse">
		<stop  offset="0" style="stop-color:#2D2522"/>
		<stop  offset="1" style="stop-color:#342E2C"/>
	</radialGradient>
	<circle class="st3" cx="550.5" cy="210.5" r="75.5"/>
	<path class="st4" d="M552.49,273.12L552.49,273.12c-1.78,0-3.22-1.44-3.22-3.22v-54.19c0-1.78,1.44-3.22,3.22-3.22l0,0
		c1.78,0,3.22,1.44,3.22,3.22v54.19C555.71,271.67,554.27,273.12,552.49,273.12z"/>
	<path class="st5" d="M546.47,219.02L546.47,219.02c-2.48-2.69-2.32-6.89,0.38-9.37l40.78-37.63c2.69-2.48,6.89-2.32,9.37,0.38l0,0
		c2.48,2.69,2.32,6.89-0.38,9.37l-40.78,37.63C553.15,221.88,548.95,221.71,546.47,219.02z"/>
	<path class="st6" d="M556.53,218.88L556.53,218.88c-2.28,2.87-6.45,3.34-9.32,1.07l-35.62-28.3c-2.87-2.28-3.34-6.45-1.07-9.32v0
		c2.28-2.87,6.45-3.34,9.32-1.07l35.62,28.3C558.33,211.84,558.8,216.01,556.53,218.88z"/>
</g>
<g>
	<path class="st7" d="M985.2,566h-69.02c-8.74,0-15.82-7.08-15.82-15.82v-31.36c0-8.74,7.08-15.82,15.82-15.82h69.02V566z"/>
	<path class="st8" d="M1114.84,566H985.2v-63h130.07c8.88,0,16.09,7.2,16.09,16.09v30.39C1131.36,558.6,1123.96,566,1114.84,566z"/>
	<text transform="matrix(1 0 0 1 917.5352 548.6816)" class="st5 st9 st10">C#</text>
	<text transform="matrix(1 0 0 1 1004.0552 548.6816)" class="st5 st9 st10">100%</text>
</g>
<g>
	<path class="st7" d="M1288.44,566h-118.58c-8.74,0-15.82-7.08-15.82-15.82v-31.36c0-8.74,7.08-15.82,15.82-15.82h118.58V566z"/>
	<path class="st11" d="M1415.56,566h-127.12v-63h127.55c8.88,0,16.09,7.2,16.09,16.09v30.39C1432.08,558.6,1424.68,566,1415.56,566z
		"/>
	<text transform="matrix(1 0 0 1 1172.0557 548.6816)" class="st5 st9 st10">Beta</text>
	<text transform="matrix(1 0 0 1 1307.2949 548.6816)" class="st5 st9 st10">v1.1</text>
</g>
<g>
	<path class="st7" d="M695.4,566H492.82c-8.74,0-15.82-7.08-15.82-15.82v-31.36c0-8.74,7.08-15.82,15.82-15.82H695.4V566z"/>
	<path class="st12" d="M861.16,566H695.4v-63h166.19c8.88,0,16.09,7.2,16.09,16.09v30.39C877.68,558.6,870.28,566,861.16,566z"/>
	<text transform="matrix(1 0 0 1 496.6953 548.6816)" class="st5 st9 st10">License</text>
	<text transform="matrix(1 0 0 1 715.0952 548.6816)"><tspan x="0" y="0" class="st5 st9 st10">GPL</tspan><tspan x="77.59" y="0" class="st5 st9 st13"> </tspan><tspan x="88.87" y="0" class="st5 st9 st10">v3</tspan></text>
</g>
<g class="st14">
	<text transform="matrix(1 0 0 1 614.8936 688.8506)" class="st15 st9 st16">https://github.com/CaozyDevp/ExamClock</text>
	<path class="st15" d="M592.57,691.67h-14.62c-4.79,0.09-8.75-3.73-8.84-8.53c-0.09-4.79,3.73-8.75,8.53-8.84c0.1,0,0.21,0,0.31,0
		h9.14c0.76,0,1.37,0.61,1.37,1.37c0,0.76-0.61,1.37-1.37,1.37h-9.14c-3.28-0.07-6,2.53-6.07,5.81c-0.07,3.28,2.53,6,5.81,6.07
		c0.09,0,0.17,0,0.26,0h14.62c3.28,0,5.94-2.65,5.94-5.93c0-1.45-0.53-2.85-1.49-3.94c-0.5-0.57-0.45-1.43,0.12-1.94
		c0.57-0.5,1.43-0.45,1.94,0.12c3.17,3.59,2.83,9.08-0.76,12.25C596.73,690.9,594.69,691.67,592.57,691.67L592.57,691.67z"/>
	<path class="st15" d="M585.25,684.36h-9.14c-0.76,0-1.37-0.61-1.37-1.37c0-0.76,0.61-1.37,1.37-1.37h9.14
		c3.28-0.07,5.88-2.79,5.81-6.07c-0.07-3.18-2.63-5.74-5.81-5.81h-14.62c-3.28,0-5.94,2.66-5.94,5.94c0,1.45,0.53,2.84,1.48,3.93
		c0.5,0.57,0.45,1.44-0.12,1.94c-0.57,0.5-1.44,0.45-1.94-0.12l0,0c-3.17-3.6-2.82-9.09,0.78-12.26c1.58-1.4,3.62-2.17,5.74-2.17
		h14.62c4.79,0.09,8.61,4.04,8.53,8.84C593.69,680.51,589.92,684.28,585.25,684.36L585.25,684.36z"/>
</g>
<g>
	<g>
		<path class="st17" d="M515.43,390.67V353.7h24.53v4.84h-19.07v11.68h17.49v4.74h-17.49v15.71H515.43z"/>
		<path class="st17" d="M556.33,391.28c-2.52,0-4.75-0.57-6.71-1.71c-1.96-1.14-3.48-2.75-4.56-4.84c-1.09-2.09-1.63-4.53-1.63-7.32
			c0-2.69,0.54-5.07,1.61-7.14c1.07-2.07,2.55-3.66,4.44-4.77c1.89-1.1,4.02-1.66,6.4-1.66c2.62,0,4.89,0.64,6.81,1.91
			c1.92,1.27,3.35,3.03,4.28,5.28c0.94,2.24,1.28,4.78,1.05,7.6h-19.89l0.1-3.77h14.48c-0.14-1.29-0.51-2.43-1.12-3.42
			c-0.61-0.99-1.41-1.75-2.4-2.29c-0.99-0.54-2.09-0.82-3.31-0.82c-1.26,0-2.41,0.32-3.47,0.97c-1.05,0.65-1.89,1.56-2.5,2.73
			c-0.61,1.17-0.94,2.54-0.97,4.11v1.53c-0.03,1.8,0.26,3.39,0.89,4.77c0.63,1.38,1.52,2.45,2.68,3.21c1.16,0.76,2.5,1.15,4.03,1.15
			c1.53,0,2.84-0.39,3.93-1.17c1.09-0.78,1.89-1.97,2.4-3.57l4.74,1.28c-0.44,1.56-1.19,2.95-2.24,4.16
			c-1.05,1.21-2.35,2.14-3.88,2.8C559.95,390.95,558.23,391.28,556.33,391.28z"/>
		<path class="st17" d="M580.66,391.28c-2.86,0-5.1-0.74-6.73-2.22c-1.63-1.48-2.45-3.41-2.45-5.79c0-2.62,0.88-4.51,2.65-5.69
			c1.77-1.17,4.54-1.96,8.31-2.37l7.45-0.82v3.62l-6.58,0.61c-2.45,0.27-4.14,0.76-5.07,1.45c-0.94,0.7-1.4,1.69-1.4,2.98
			c0,1.09,0.42,2.02,1.25,2.8c0.83,0.78,2.13,1.17,3.9,1.17c1.29,0,2.45-0.28,3.47-0.84c1.02-0.56,1.82-1.39,2.4-2.5
			c0.58-1.1,0.87-2.41,0.87-3.9v-5.97c0-1.77-0.48-3.14-1.45-4.11c-0.97-0.97-2.3-1.45-4-1.45c-1.6,0-2.89,0.38-3.88,1.15
			c-0.99,0.76-1.7,1.88-2.14,3.34l-4.95-1.28c0.37-1.67,1.1-3.09,2.17-4.26c1.07-1.17,2.35-2.04,3.85-2.6
			c1.5-0.56,3.06-0.84,4.69-0.84c2.58,0,4.71,0.47,6.38,1.4c1.67,0.94,2.86,2.12,3.6,3.54c0.73,1.43,1.1,2.91,1.1,4.44v11.53
			c0,2.45,0.08,4.44,0.26,5.97h-5.25c-0.2-1.16-0.34-2.41-0.41-3.77h-0.05c-0.78,1.43-1.85,2.52-3.21,3.26
			C584.04,390.91,582.46,391.28,580.66,391.28z"/>
		<path class="st17" d="M609.16,391.23c-2.38,0-4.19-0.58-5.43-1.73c-1.24-1.16-1.86-2.94-1.86-5.36v-15.66h-4.13v-4.03h4.13v-8.21
			h5.35v8.21h6.02v4.03h-6.02v14.54c0,1.26,0.29,2.19,0.87,2.8c0.58,0.61,1.41,0.92,2.5,0.92c0.88,0,1.68-0.15,2.4-0.46v4.28
			C611.93,391.01,610.66,391.23,609.16,391.23z"/>
		<path class="st17" d="M627.01,391.23c-1.8,0-3.43-0.37-4.87-1.1c-1.45-0.73-2.6-1.87-3.47-3.42c-0.87-1.55-1.3-3.51-1.3-5.89
			v-16.37h5.35v15.55c0,2.48,0.49,4.19,1.48,5.13c0.99,0.94,2.35,1.4,4.08,1.4c2.01,0,3.63-0.65,4.87-1.96
			c1.24-1.31,1.86-3.22,1.86-5.74v-14.38h5.35v20.04c0,0.92,0.03,1.93,0.08,3.03c0.05,1.11,0.13,2.15,0.23,3.14h-5.1
			c-0.2-1.09-0.37-2.5-0.51-4.23h-0.05c-0.75,1.56-1.8,2.75-3.16,3.57C630.5,390.82,628.88,391.23,627.01,391.23z"/>
		<path class="st17" d="M646.04,390.67v-26.21h5.1l0.25,4.64h0.1c0.68-1.63,1.71-2.91,3.09-3.82s2.93-1.38,4.67-1.38
			c0.44,0,0.84,0.02,1.2,0.05c0.36,0.03,0.72,0.1,1.1,0.2v4.79c-0.88-0.17-1.79-0.25-2.7-0.25c-1.36,0-2.61,0.34-3.75,1.02
			c-1.14,0.68-2.04,1.68-2.7,3.01c-0.66,1.33-0.99,2.89-0.99,4.69v13.26H646.04z"/>
		<path class="st17" d="M677.15,391.28c-2.52,0-4.75-0.57-6.71-1.71c-1.96-1.14-3.48-2.75-4.56-4.84c-1.09-2.09-1.63-4.53-1.63-7.32
			c0-2.69,0.54-5.07,1.61-7.14c1.07-2.07,2.55-3.66,4.44-4.77c1.89-1.1,4.02-1.66,6.4-1.66c2.62,0,4.89,0.64,6.81,1.91
			c1.92,1.27,3.35,3.03,4.28,5.28c0.94,2.24,1.28,4.78,1.05,7.6h-19.89l0.1-3.77h14.48c-0.14-1.29-0.51-2.43-1.12-3.42
			c-0.61-0.99-1.41-1.75-2.4-2.29c-0.99-0.54-2.09-0.82-3.31-0.82c-1.26,0-2.41,0.32-3.47,0.97c-1.05,0.65-1.89,1.56-2.5,2.73
			c-0.61,1.17-0.94,2.54-0.97,4.11v1.53c-0.03,1.8,0.26,3.39,0.89,4.77c0.63,1.38,1.52,2.45,2.68,3.21c1.16,0.76,2.5,1.15,4.03,1.15
			c1.53,0,2.84-0.39,3.93-1.17c1.09-0.78,1.89-1.97,2.4-3.57l4.74,1.28c-0.44,1.56-1.19,2.95-2.24,4.16
			c-1.05,1.21-2.35,2.14-3.88,2.8C680.77,390.95,679.05,391.28,677.15,391.28z"/>
		<path class="st17" d="M703.56,391.18c-2.92,0-5.42-0.67-7.47-2.01c-2.06-1.34-3.32-3.29-3.8-5.84l5.05-1.07
			c0.31,1.43,1.03,2.56,2.17,3.39c1.14,0.83,2.58,1.25,4.31,1.25c1.09,0,2-0.15,2.73-0.46c0.73-0.31,1.28-0.72,1.66-1.25
			c0.37-0.53,0.56-1.11,0.56-1.76c0-0.68-0.15-1.22-0.46-1.63c-0.31-0.41-0.77-0.75-1.4-1.02c-0.63-0.27-1.52-0.56-2.68-0.87
			l-4.49-1.22c-2.38-0.61-4.14-1.47-5.28-2.58c-1.14-1.1-1.71-2.63-1.71-4.56c0-1.43,0.43-2.73,1.3-3.9
			c0.87-1.17,2.09-2.1,3.67-2.78c1.58-0.68,3.41-1.02,5.48-1.02c2.75,0,5.07,0.66,6.96,1.99c1.89,1.33,3.02,3.13,3.39,5.41
			l-4.79,1.07c-0.31-1.29-0.94-2.32-1.91-3.08c-0.97-0.76-2.25-1.15-3.85-1.15c-0.92,0-1.75,0.14-2.5,0.43
			c-0.75,0.29-1.33,0.68-1.73,1.17c-0.41,0.49-0.61,1.08-0.61,1.76c0,0.58,0.12,1.07,0.36,1.48c0.24,0.41,0.65,0.77,1.25,1.1
			c0.59,0.32,1.42,0.6,2.47,0.84l4.74,1.22c1.56,0.41,2.87,0.89,3.93,1.45c1.05,0.56,1.87,1.29,2.45,2.19
			c0.58,0.9,0.87,2.01,0.87,3.34c0,1.6-0.43,3.01-1.3,4.23c-0.87,1.22-2.1,2.18-3.7,2.86C707.63,390.84,705.74,391.18,703.56,391.18
			z"/>
		<path class="st17" d="M743.44,400.72V353.7h4.79v47.02H743.44z"/>
		<path class="st17" d="M776.85,373.08c2.28-3.5,4.44-7.42,6.48-11.76s3.71-8.59,5-12.78l4.54,1.07c-1.73,5.1-3.5,9.62-5.3,13.57
			c-1.8,3.95-4.03,8.08-6.68,12.39L776.85,373.08z M784.19,361.19l4.59-2.14v36.21h-4.59V361.19z M789.29,392.76
			c1.97-1.97,3.57-3.9,4.79-5.79s2.14-3.8,2.75-5.74c0.61-1.77,1.08-3.9,1.4-6.4c0.32-2.5,0.55-5.5,0.69-9l0.05-2.75
			c0.07-1.12,0.11-2.18,0.13-3.16c0.02-0.99,0.03-1.72,0.03-2.19h4.74c0,1.19-0.03,2.6-0.1,4.23c-0.07,1.63-0.12,3.09-0.15,4.39
			c-0.14,3.57-0.39,6.71-0.77,9.41c-0.37,2.7-0.87,5.07-1.48,7.11c-0.71,2.24-1.74,4.45-3.09,6.6c-1.34,2.16-3,4.28-4.97,6.35
			L789.29,392.76z M792.1,355.68h31.62v4.64H792.1V355.68z M819.79,367.42c-0.34,8.4-0.73,15.01-1.17,19.84
			c-0.2,1.67-0.51,2.94-0.92,3.83c-0.41,0.88-1.04,1.55-1.89,1.99c-0.85,0.44-2.06,0.75-3.62,0.92c-0.88,0.1-1.96,0.17-3.21,0.2
			c-1.26,0.03-2.35,0.03-3.26,0l-0.92-4.79c0.88,0.07,1.83,0.11,2.83,0.13c1,0.02,1.88,0.01,2.63-0.03
			c1.12-0.07,1.91-0.18,2.37-0.33c0.46-0.15,0.78-0.46,0.97-0.92c0.19-0.46,0.35-1.23,0.48-2.32c0.17-1.5,0.35-3.76,0.54-6.81
			c0.19-3.04,0.28-5.45,0.28-7.22h-14.13v-4.49H819.79z M808.77,348.54c0.54,1.39,1.07,2.99,1.58,4.79c0.44,1.8,0.82,3.43,1.12,4.9
			l-4.9-0.05c-0.24-1.39-0.58-2.89-1.02-4.49c-0.51-1.77-0.99-3.25-1.43-4.44L808.77,348.54z"/>
		<path class="st17" d="M829.02,382.41h45.49v3.57h-45.49V382.41z M829.68,391.95c2.99-0.92,5.8-1.85,8.42-2.81
			c2.31-0.88,4.86-2.02,7.65-3.42l1.89,3.77c-1.63,0.82-3.57,1.72-5.81,2.7c-0.37,0.14-0.77,0.29-1.17,0.46
			c-0.41,0.17-0.8,0.34-1.17,0.51c-2.48,1.02-5.22,1.97-8.21,2.86L829.68,391.95z M830.6,352.37h42.28v3.72H830.6V352.37z
			 M836.11,358.95h31.42v24.43h-4.59v-21.22H840.6v21.27h-4.49V358.95z M838.61,364.97h26.42v2.96h-26.42V364.97z M838.61,370.68
			h26.42v3.01h-26.42V370.68z M838.61,376.54h26.42v3.01h-26.42V376.54z M849.47,348.39h4.59v11.83h-4.59V348.39z M857.12,385.93
			c1.97,0.48,4.79,1.38,8.47,2.7c3.06,1.02,5.71,2.04,7.96,3.06l-1.79,4.03c-2.04-1.05-4.68-2.19-7.9-3.42
			c-3.13-1.16-5.87-2.02-8.21-2.6L857.12,385.93z"/>
		<path class="st17" d="M882.21,352.27h16.17v38.4h-16.17V352.27z M884.25,368.69h11.68v4.33h-11.68V368.69z M886.55,356.91v29.27
			h7.45v-29.27H886.55z M899.76,358.49h25.7v4.64h-25.7V358.49z M904.75,365.78c1.19,1.63,2.45,3.74,3.77,6.32
			c1.5,2.52,2.62,4.74,3.37,6.68l-4.03,2.19c-0.75-1.87-1.84-4.13-3.26-6.78c-1.5-2.82-2.72-4.9-3.67-6.22L904.75,365.78z
			 M919.7,388.63c0,1.39-0.16,2.52-0.48,3.37c-0.32,0.85-0.87,1.49-1.63,1.91c-0.76,0.42-1.81,0.71-3.14,0.84
			c-2.14,0.2-4.66,0.29-7.55,0.25l-1.02-5.1c1.43,0.1,3.47,0.15,6.12,0.15c0.95-0.03,1.61-0.12,1.96-0.25
			c0.36-0.13,0.59-0.38,0.71-0.74c0.12-0.36,0.18-0.99,0.18-1.91v-38.4h4.85V388.63z"/>
		<path class="st17" d="M929.13,362.16c1.46-1.87,2.86-4.11,4.18-6.73c1.33-2.62,2.33-5.01,3.01-7.19l4.08,1.17
			c-0.78,2.48-1.84,5.08-3.16,7.8c-1.33,2.72-2.91,5.24-4.74,7.55L929.13,362.16z M930.71,374.1h16.42v4.39h-16.42V374.1z
			 M933.21,364.15h12.75v4.13h-12.75V364.15z M934.95,391.49c0.61-0.41,1.03-0.79,1.25-1.15c0.22-0.36,0.35-0.84,0.38-1.45v-22.69
			h4.44v22.29c0.88-0.48,1.97-1.12,3.26-1.94c1.29-0.82,2.35-1.55,3.16-2.19l1.38,4.28c-1.29,0.88-2.8,1.8-4.51,2.75
			c-1.72,0.95-3.6,1.92-5.64,2.91c-0.31,0.14-0.62,0.28-0.94,0.43c-0.32,0.15-0.64,0.3-0.94,0.43L934.95,391.49z M935.81,354.87
			h11.83v4.23h-11.83V354.87z M948.66,357.67h25.35v22.59h-25.35V357.67z M952.95,361.86v14.08h16.78v-14.08H952.95z M959.22,348.54
			h4.23v46.56h-4.23V348.54z"/>
		<path class="st17" d="M992.88,364.51h10.25v21.47c1.05-0.85,2.5-2.23,4.34-4.13l2.09,4.28c-2.75,2.55-6.1,5.17-10.05,7.85
			l-2.3-3.42c0.54-0.38,0.92-0.77,1.12-1.17c0.2-0.41,0.31-0.92,0.31-1.53v-19.13h-5.76V364.51z M998.69,349.11
			c0.58,0.54,1.55,1.6,2.91,3.16c0.13,0.17,0.28,0.35,0.43,0.54c0.15,0.19,0.3,0.37,0.43,0.54c1.46,1.73,2.62,3.25,3.47,4.54
			l-3.62,2.96c-0.61-0.95-1.75-2.48-3.42-4.59c-1.6-2.01-2.84-3.45-3.72-4.33L998.69,349.11z M1006.09,369.61h33v4.18h-33V369.61z
			 M1007.21,350.79h29.53v4.03h-29.53V350.79z M1008.64,359.82h25.19l-0.36,11.93h-4.64l0.25-7.96h-20.45V359.82z M1010.02,377.31
			h25.14v16.78h-25.14V377.31z M1013.33,371.29l3.42-19.23l4.39,0.92l-3.42,19.28L1013.33,371.29z M1014.56,381.59v8.31h15.96v-8.31
			H1014.56z"/>
		<path class="st17" d="M1044.29,364.3h44.78v4.18h-44.78V364.3z M1046.74,353.13h39.88v4.13h-39.88V353.13z M1049.8,372.11h33.76
			v22.34h-33.76V372.11z M1051.99,381.18h29.43v4.08h-29.43V381.18z M1057.5,356.6c0.1,0.07,0.46,0.48,1.07,1.22l1.17,1.53
			c0.31,0.41,0.6,0.8,0.87,1.17c0.27,0.37,0.53,0.73,0.77,1.07l0.51,0.77l-3.98,2.65c-0.58-0.99-1.26-1.99-2.04-3.01
			c-1.22-1.63-1.94-2.58-2.14-2.86L1057.5,356.6z M1054.54,376.39v13.82h24.22v-13.82H1054.54z M1067.85,347.98
			c0.41,0.92,0.82,2.06,1.22,3.42c0.44,1.29,0.78,2.43,1.02,3.42l-4.49,0.92l-0.15-0.66c-0.27-0.88-0.58-1.8-0.92-2.75
			c-0.31-0.99-0.73-2.11-1.28-3.37L1067.85,347.98z M1070.3,364.92c0.85-0.95,1.77-2.23,2.75-3.83c1.22-2.04,2.02-3.47,2.4-4.28
			l4.33,2.24c-0.88,1.56-1.77,3.03-2.65,4.39c-0.95,1.46-1.87,2.79-2.75,3.98L1070.3,364.92z"/>
		<path class="st17" d="M1093.71,373.18c2.52-0.82,4.96-1.7,7.34-2.65c2.45-0.95,4.67-1.89,6.68-2.81l0.87,4.39
			c-0.78,0.37-1.51,0.71-2.19,1.02c-0.68,0.31-1.38,0.61-2.09,0.92c-0.71,0.31-1.45,0.63-2.19,0.97c-0.27,0.1-0.53,0.2-0.76,0.31
			c-0.24,0.1-0.49,0.2-0.77,0.31c-0.95,0.41-1.88,0.77-2.78,1.1c-0.9,0.32-1.78,0.64-2.63,0.94L1093.71,373.18z M1095.08,390.11
			c1.43,0.1,2.45,0.15,3.06,0.15c0.61,0,1.04-0.05,1.3-0.15c0.25-0.1,0.42-0.3,0.51-0.59c0.08-0.29,0.13-0.74,0.13-1.35V348.9h4.18
			v40.65c0,1.19-0.14,2.13-0.41,2.83c-0.27,0.7-0.69,1.21-1.25,1.53s-1.35,0.55-2.37,0.69c-1.39,0.2-2.82,0.27-4.28,0.2
			L1095.08,390.11z M1095.08,357.37h13.26v4.23h-13.26V357.37z M1105.69,373.03c2.58-1.19,4.95-2.63,7.09-4.33
			c1.15-0.95,2.17-1.9,3.06-2.86c0.88-0.95,1.65-1.96,2.29-3.01l3.32,1.79c-0.68,1.22-1.5,2.41-2.45,3.54
			c-0.95,1.14-2.02,2.24-3.21,3.29c-2.52,2.21-5.12,3.94-7.8,5.2L1105.69,373.03z M1108.29,361.7h31.37v3.72h-31.37V361.7z
			 M1108.8,351.35c3.88,0,8.53-0.22,13.97-0.66c5.47-0.51,9.96-1.1,13.46-1.79l1.12,3.93c-3.84,0.65-8.64,1.21-14.38,1.68
			c-5.27,0.48-9.74,0.73-13.41,0.77L1108.8,351.35z M1110.28,373.33h25.96v20.96h-25.96V373.33z M1114.36,354.92
			c0.51,0.51,1.17,1.29,1.99,2.35c1.05,1.39,1.75,2.33,2.09,2.81l-3.26,2.04c-0.44-0.71-1.04-1.58-1.79-2.6
			c-0.41-0.48-0.79-0.94-1.15-1.4c-0.36-0.46-0.71-0.88-1.05-1.25L1114.36,354.92z M1112.22,381.95h22.03v3.57h-22.03V381.95z
			 M1114.41,377v13.62h17.7V377H1114.41z M1121.25,352.78h4.08V372h-4.08V352.78z M1121.25,375.73h4.03v15.91h-4.03V375.73z
			 M1128.29,362.72c1.29,2.11,3.14,4.05,5.56,5.81c2.18,1.53,4.54,2.82,7.09,3.88l-1.99,3.93c-2.92-1.36-5.66-3.08-8.21-5.15
			c-2.41-1.97-4.25-4.15-5.51-6.53L1128.29,362.72z M1128.08,360.02c0.71-0.78,1.45-1.68,2.19-2.7c1.05-1.53,1.75-2.55,2.09-3.06
			l3.31,1.94c-0.31,0.48-0.97,1.46-1.99,2.96c-0.78,1.09-1.62,2.09-2.5,3.01L1128.08,360.02z"/>
		<path class="st17" d="M1162.2,372.77c-0.31,0.14-0.64,0.27-0.99,0.41c-0.36,0.14-0.74,0.27-1.15,0.41
			c-0.75,0.31-1.52,0.61-2.32,0.92s-1.62,0.6-2.47,0.87c-3.26,1.16-6.22,2.13-8.88,2.91l-1.22-4.33c2.45-0.61,5.49-1.53,9.13-2.75
			c0.27-0.1,0.56-0.2,0.87-0.31c0.31-0.1,0.59-0.2,0.87-0.31c1.56-0.54,3.37-1.21,5.41-1.99L1162.2,372.77z M1145.83,357.93h16.52
			v4.23h-16.52V357.93z M1156.89,389.65c0,1.7-0.29,2.93-0.87,3.7c-0.58,0.76-1.65,1.23-3.21,1.4c-1.91,0.24-3.64,0.32-5.2,0.25
			l-0.92-4.44c1.33,0.1,2.55,0.13,3.67,0.1c0.68-0.03,1.16-0.09,1.43-0.18c0.27-0.08,0.46-0.27,0.56-0.56
			c0.1-0.29,0.15-0.76,0.15-1.4v-39.78h4.38V389.65z M1187.8,350.94c-0.03,2.92-0.17,5.88-0.41,8.87c-0.07,1.05-0.29,1.9-0.66,2.55
			c-0.38,0.65-0.95,1.15-1.73,1.5c-0.78,0.36-1.87,0.59-3.26,0.69c-2.69,0.24-5.29,0.32-7.8,0.26l-0.66-4.28
			c3.06,0.17,5.58,0.22,7.55,0.15c0.88-0.03,1.46-0.16,1.73-0.38c0.27-0.22,0.46-0.65,0.56-1.3c0.1-0.95,0.15-2.24,0.15-3.88h-15.2
			v40.7h-4.39v-44.88H1187.8z M1165.87,367.57h22.54v4.03c-0.68,2.38-1.56,4.65-2.63,6.81c-1.07,2.16-2.41,4.24-4,6.25
			c-1.39,1.77-3.05,3.48-4.97,5.13c-1.92,1.65-4.19,3.32-6.81,5.02l-2.96-3.83c4.79-2.79,8.52-5.73,11.17-8.82
			c2.65-3.13,4.52-6.63,5.61-10.51h-17.95V367.57z M1173.11,370.12c0.78,2.62,1.79,5.09,3.04,7.42c1.24,2.33,2.56,4.21,3.95,5.64
			c1.43,1.56,3.04,3,4.85,4.31c1.8,1.31,3.98,2.66,6.53,4.05l-2.6,3.93c-5.03-2.96-8.96-6.02-11.78-9.18
			c-1.63-1.8-3.16-4.06-4.59-6.78c-1.43-2.72-2.6-5.59-3.52-8.62L1173.11,370.12z"/>
		<path class="st17" d="M1210.24,352.27h16.17v38.4h-16.17V352.27z M1212.28,368.69h11.68v4.33h-11.68V368.69z M1214.58,356.91
			v29.27h7.45v-29.27H1214.58z M1227.78,358.49h25.7v4.64h-25.7V358.49z M1232.78,365.78c1.19,1.63,2.45,3.74,3.77,6.32
			c1.5,2.52,2.62,4.74,3.37,6.68l-4.03,2.19c-0.75-1.87-1.84-4.13-3.26-6.78c-1.5-2.82-2.72-4.9-3.67-6.22L1232.78,365.78z
			 M1247.72,388.63c0,1.39-0.16,2.52-0.48,3.37c-0.32,0.85-0.87,1.49-1.63,1.91c-0.76,0.42-1.81,0.71-3.14,0.84
			c-2.14,0.2-4.66,0.29-7.55,0.25l-1.02-5.1c1.43,0.1,3.47,0.15,6.12,0.15c0.95-0.03,1.61-0.12,1.96-0.25
			c0.36-0.13,0.59-0.38,0.71-0.74c0.12-0.36,0.18-0.99,0.18-1.91v-38.4h4.84V388.63z"/>
		<path class="st17" d="M1261.34,357.88h4.54v37.38h-4.54V357.88z M1265.42,348.29c1.29,1.09,2.69,2.4,4.18,3.93l0.87,0.87
			c1.63,1.73,2.57,2.75,2.81,3.06l-3.37,3.47c-0.24-0.27-0.48-0.56-0.74-0.87c-0.26-0.31-0.54-0.63-0.84-0.97
			c-0.31-0.41-0.64-0.81-1-1.2c-0.36-0.39-0.74-0.79-1.15-1.2c-1.6-1.73-2.92-3.08-3.98-4.03L1265.42,348.29z M1271.34,361.6h20.15
			v25.76h-20.15V361.6z M1273.38,372.21h15.96v4.28h-15.96V372.21z M1274.5,351.5h27.13v37.13c0,1.53-0.15,2.72-0.46,3.57
			c-0.31,0.85-0.82,1.49-1.53,1.91c-0.71,0.42-1.73,0.71-3.06,0.84c-1.12,0.14-2.3,0.22-3.54,0.25c-1.24,0.03-2.46,0.05-3.65,0.05
			l-0.87-4.9c1.8,0.14,3.74,0.19,5.81,0.15c0.82-0.03,1.39-0.11,1.73-0.23c0.34-0.12,0.58-0.36,0.71-0.71
			c0.14-0.36,0.2-0.94,0.2-1.76v-31.88h-22.49V351.5z M1275.88,365.88v17.03H1287v-17.03H1275.88z"/>
		<path class="st17" d="M1312.04,351.2h39.68v37.79c0,1.33-0.17,2.38-0.51,3.16c-0.34,0.78-0.91,1.39-1.71,1.84
			c-0.8,0.44-1.91,0.75-3.34,0.92c-1.7,0.2-3.71,0.29-6.02,0.25l-0.87-4.79c1.12,0.07,2.07,0.1,2.86,0.1h1.94
			c0.92,0,1.59-0.07,2.01-0.2s0.71-0.39,0.87-0.76c0.15-0.37,0.23-0.99,0.23-1.84v-32.08h-30.7v39.58h-4.44V351.2z M1319.28,360.84
			h25.24v4.03h-25.24V360.84z M1321.88,369.71h19.89v17.19h-19.89V369.71z M1326.11,373.69v9.23h11.42v-9.23H1326.11z"/>
		<path class="st17" d="M1360.69,365.99h44.57v4.74h-44.57V365.99z M1360.79,382.97c2.31-1.67,4.63-3.54,6.96-5.63
			c2.33-2.09,4.22-4.04,5.69-5.84l3.52,3.11c-1.67,2.01-3.72,4.11-6.17,6.32c-2.45,2.21-4.79,4.1-7.04,5.66L1360.79,382.97z
			 M1361.66,391.03c5.07-0.95,9.49-1.97,13.29-3.06c3.79-1.09,7-2.31,9.61-3.67c2.72-1.39,5.23-3.07,7.52-5.02
			c2.29-1.96,4.43-4.21,6.4-6.76l3.72,3.32c-2.38,2.92-4.89,5.48-7.52,7.68c-2.64,2.19-5.4,4.02-8.29,5.48
			c-2.86,1.39-6.22,2.68-10.1,3.85s-8.14,2.18-12.8,3.03L1361.66,391.03z M1368.24,352.47h4.74v16.01h-4.74V352.47z M1380.94,348.7
			h4.79v19.48h-4.79V348.7z M1381.65,369.4h4.79v14.28h-4.79V369.4z M1383.54,354.61h18.36v4.54h-18.36V354.61z"/>
	</g>
</g>
</svg>
